<svg xmlns="http://www.w3.org/2000/svg" xmlns:xlink="http://www.w3.org/1999/xlink" preserveAspectRatio="xMidYMid" width="128" height="128" viewBox="0 0 128 128">
  <defs>
    <style>

      .cls-3 {
        fill: #1b2939;
      }

      .cls-5 {
        fill: #a59954;
      }

      .cls-6 {
        stroke: #786d2e;
        stroke-width: 5px;
        fill: none;
        opacity: 0.36;
      }

      .cls-7 {
        fill: #d4cead;
        filter: url(#filter-chain-1);
        opacity: 0.52;
      }
    </style>

    <filter id="filter-chain-1" filterUnits="userSpaceOnUse">
      <feOffset in="SourceAlpha" dx="-2.121" dy="2.121"/>
      <feGaussianBlur result="dropShadow" stdDeviation="0"/>
      <feFlood flood-color="#000000" flood-opacity="0.34"/>
      <feComposite operator="in" in2="dropShadow"/>
      <feComposite in="SourceGraphic" result="dropShadow"/>
      <feFlood flood-color="#ffffff" flood-opacity="1"/>
      <feComposite operator="in" in2="SourceGraphic"/>
      <feBlend mode="normal" in2="dropShadow" result="colorOverlay"/>
    </filter>
  </defs>
  <g id="version-5">
    <rect id="rect-1" class="cls-3" width="128" height="128"/>
    <g id="wp--text">
      <circle id="circle-1" class="cls-5" cx="64" cy="65" r="56"/>
      <circle id="circle-2" class="cls-6" cx="64" cy="65" r="50"/>
      <path d="M71.738,44.972 C71.738,44.972 71.009,44.972 71.009,44.972 C71.009,44.972 71.009,64.481 71.009,64.481 C71.009,64.481 60.075,64.481 60.075,64.481 C60.075,64.481 60.075,44.972 60.075,44.972 C60.075,44.972 59.346,44.972 59.346,44.972 C56.139,44.972 53.940,45.294 52.750,45.938 C51.559,46.581 50.745,48.018 50.308,50.246 C50.308,50.246 48.850,57.600 48.850,57.600 C48.850,57.600 46.007,57.600 46.007,57.600 C46.007,57.600 44.039,45.121 44.039,45.121 C44.039,44.130 44.258,43.400 44.695,42.929 C45.132,42.459 45.606,42.186 46.116,42.112 C46.627,42.038 47.416,42.001 48.485,42.001 C48.485,42.001 82.599,42.001 82.599,42.001 C83.668,42.001 84.458,42.038 84.968,42.112 C85.478,42.186 85.952,42.459 86.390,42.929 C86.827,43.400 87.046,44.130 87.046,45.121 C87.046,45.121 85.078,57.600 85.078,57.600 C85.078,57.600 82.235,57.600 82.235,57.600 C82.235,57.600 80.777,50.246 80.777,50.246 C80.340,48.018 79.526,46.581 78.335,45.938 C77.144,45.294 74.945,44.972 71.738,44.972 C71.738,44.972 71.738,44.972 71.738,44.972 ZM86.450,74.771 C86.450,74.771 89.688,72.026 89.688,72.026 C90.045,71.719 90.099,71.177 89.807,70.806 C89.807,70.806 87.648,68.057 87.648,68.057 C87.628,68.032 87.606,68.008 87.584,67.986 C87.432,67.831 87.231,67.741 87.009,67.730 C86.764,67.725 86.521,67.821 86.354,68.010 C86.354,68.010 84.823,69.678 84.823,69.678 C84.823,69.678 83.293,68.010 83.293,68.010 C83.109,67.810 82.904,67.732 82.664,67.730 C82.428,67.732 82.201,67.833 82.039,68.008 C82.039,68.008 80.512,69.681 80.512,69.681 C80.512,69.681 78.978,68.008 78.978,68.008 C78.818,67.831 78.590,67.730 78.354,67.732 C78.113,67.730 77.890,67.834 77.728,68.009 C77.728,68.009 76.194,69.678 76.194,69.678 C76.194,69.678 74.668,68.010 74.668,68.010 C74.501,67.829 74.279,67.731 74.039,67.729 C74.039,67.729 56.284,67.732 56.284,67.732 C55.811,66.541 55.112,65.450 54.195,64.516 C52.403,62.690 50.023,61.688 47.486,61.689 C42.254,61.687 38.001,66.022 38.002,71.354 C38.005,73.936 38.988,76.361 40.781,78.188 C42.573,80.015 44.955,81.020 47.486,81.021 C50.018,81.017 52.402,80.012 54.193,78.187 C55.109,77.253 55.812,76.162 56.284,74.973 C56.284,74.973 60.075,74.973 60.075,74.973 C60.075,74.973 60.075,91.028 60.075,91.028 C60.075,91.028 52.786,91.028 52.786,91.028 C52.786,91.028 52.786,93.999 52.786,93.999 C52.786,93.999 78.298,93.999 78.298,93.999 C78.298,93.999 78.298,91.028 78.298,91.028 C78.298,91.028 71.009,91.028 71.009,91.028 C71.009,91.028 71.009,74.973 71.009,74.973 C71.009,74.973 85.902,74.973 85.902,74.973 C86.104,74.976 86.300,74.903 86.450,74.771 C86.450,74.771 86.450,74.771 86.450,74.771 ZM45.868,71.353 C45.867,72.871 44.661,74.101 43.172,74.101 C41.680,74.099 40.476,72.870 40.476,71.353 C40.475,69.834 41.681,68.606 43.171,68.606 C44.661,68.605 45.867,69.834 45.868,71.353 C45.868,71.353 45.868,71.353 45.868,71.353 ZM84.580,72.453 C84.580,72.814 84.291,73.109 83.936,73.109 C83.936,73.109 56.809,73.107 56.809,73.107 C56.886,72.676 56.934,72.240 56.950,71.797 C56.950,71.797 83.934,71.795 83.934,71.795 C84.111,71.795 84.275,71.871 84.390,71.988 C84.505,72.106 84.580,72.272 84.580,72.453 Z" id="path-1" class="cls-7" fill-rule="evenodd"/>
    </g>
  </g>
</svg>
